# xmcd CD database file
# Copyright (C) 1993-1998 Ti Kan
#
# Track frame offsets:
#	150
#	12335
#	23780
#	35257
#	47557
#	59482
#	69390
#	82357
#	93212
#	103800
#	115277
#	128482
#	142877
#	161985
#	174325
#
# Disc length: 2505 seconds
#
# Revision: 1
# Processed by: cddbd v1.4b41PL1 Copyright (c) Steve Scherf et al.
# Submitted via: CDValet v3.31 - Copyright (c) 1997 Greg Leichner
#
DISCID=c509c70f
DTITLE=Artistics - The Best Of
DYEAR=1900
DGENRE=
TTITLE0=I'm Gonna Miss You
TTITLE1=Girl I Need You
TTITLE2=You Left Me
TTITLE3=Walking Tall
TTITLE4=The Price Of Love
TTITLE5=Lonely Old World
TTITLE6=Yesterday's Girl
TTITLE7=Hard To Carry On
TTITLE8=Troubles Heartaches And Pain
TTITLE9=Fading Memories
TTITLE10=What Happened (To The Love We Had)
TTITLE11=When I'm Not Around
TTITLE12=With These Hands
TTITLE13=Just Another Heartache
TTITLE14=I Want You To (Make My Life Over)
EXTD=
EXTT0=
EXTT1=
EXTT2=
EXTT3=
EXTT4=
EXTT5=
EXTT6=
EXTT7=
EXTT8=
EXTT9=
EXTT10=
EXTT11=
EXTT12=
EXTT13=
EXTT14=
PLAYORDER=
